<svg width="50" height="56" viewBox="0 0 50 56" fill="none" xmlns="http://www.w3.org/2000/svg">
<g filter="url(#filter0_d_11_559)">
<path d="M40.8565 29.95C40.9337 29.325 40.9851 28.675 40.9851 28C40.9851 27.325 40.9337 26.675 40.8308 26.05L45.1766 22.75C45.5623 22.45 45.6652 21.9 45.4338 21.475L41.3194 14.55C41.0622 14.1 40.5222 13.95 40.0594 14.1L34.9421 16.1C33.8621 15.3 32.7306 14.65 31.4706 14.15L30.6991 8.85C30.622 8.35 30.1848 8 29.6705 8H21.4418C20.9275 8 20.516 8.35 20.4389 8.85L19.6674 14.15C18.4074 14.65 17.2502 15.325 16.1959 16.1L11.0787 14.1C10.6158 13.925 10.0758 14.1 9.81864 14.55L5.70426 21.475C5.44711 21.925 5.54997 22.45 5.96141 22.75L10.3072 26.05C10.2044 26.675 10.1272 27.35 10.1272 28C10.1272 28.65 10.1786 29.325 10.2815 29.95L5.93569 33.25C5.54997 33.55 5.44711 34.1 5.67854 34.525L9.79293 41.45C10.0501 41.9 10.5901 42.05 11.053 41.9L16.1702 39.9C17.2502 40.7 18.3817 41.35 19.6417 41.85L20.4132 47.15C20.516 47.65 20.9275 48 21.4418 48H29.6705C30.1848 48 30.622 47.65 30.6734 47.15L31.4449 41.85C32.7049 41.35 33.8621 40.675 34.9164 39.9L40.0336 41.9C40.4965 42.075 41.0365 41.9 41.2937 41.45L45.408 34.525C45.6652 34.075 45.5623 33.55 45.1509 33.25L40.8565 29.95ZM25.5562 35.5C21.3132 35.5 17.8417 32.125 17.8417 28C17.8417 23.875 21.3132 20.5 25.5562 20.5C29.7991 20.5 33.2706 23.875 33.2706 28C33.2706 32.125 29.7991 35.5 25.5562 35.5Z" fill="#B85526"/>
</g>
<defs>
<filter id="filter0_d_11_559" x="-4" y="0" width="58" height="58" filterUnits="userSpaceOnUse" color-interpolation-filters="sRGB">
<feFlood flood-opacity="0" result="BackgroundImageFix"/>
<feColorMatrix in="SourceAlpha" type="matrix" values="0 0 0 0 0 0 0 0 0 0 0 0 0 0 0 0 0 0 127 0" result="hardAlpha"/>
<feOffset dy="4"/>
<feGaussianBlur stdDeviation="2"/>
<feColorMatrix type="matrix" values="0 0 0 0 0 0 0 0 0 0 0 0 0 0 0 0 0 0 0.1 0"/>
<feBlend mode="normal" in2="BackgroundImageFix" result="effect1_dropShadow_11_559"/>
<feBlend mode="normal" in="SourceGraphic" in2="effect1_dropShadow_11_559" result="shape"/>
</filter>
</defs>
</svg>
