<svg width="190" height="54" viewBox="0 0 190 54" fill="none" xmlns="http://www.w3.org/2000/svg">
<path d="M37.3867 40H30.332V12.9023C30.332 10.7513 30.4596 8.45443 30.7148 6.01172H30.4961L22.9219 40H14.8008L7.19922 5.95703H6.89844C7.24479 8.50911 7.41797 10.9154 7.41797 13.1758V40H0.527344V0.0234375H11.957L18.793 31.4414H19.0117L25.793 0.0234375H37.3867V40ZM55.2422 40.5469C51.4323 40.5469 48.4245 39.1979 46.2188 36.5C44.0312 33.8021 42.9375 29.9466 42.9375 24.9336C42.9375 19.9206 43.931 16.0104 45.918 13.2031C47.9232 10.3776 50.6393 8.96484 54.0664 8.96484C57.4935 8.96484 60.1641 10.1771 62.0781 12.6016C63.9922 15.0078 64.9492 18.3893 64.9492 22.7461V26.6289H50.3203C50.375 29.3086 50.9219 31.3229 51.9609 32.6719C53 34.0026 54.4674 34.668 56.3633 34.668C58.7148 34.668 61.1393 33.9297 63.6367 32.4531V38.4414C61.3034 39.8451 58.5052 40.5469 55.2422 40.5469ZM57.8125 21.3516C57.776 19.1458 57.4388 17.4688 56.8008 16.3203C56.1628 15.1536 55.2969 14.5703 54.2031 14.5703C53.1094 14.5703 52.2344 15.1445 51.5781 16.293C50.9219 17.4232 50.5391 19.1094 50.4297 21.3516H57.8125ZM81 40.5469C77.1901 40.5469 74.1823 39.1979 71.9766 36.5C69.7891 33.8021 68.6953 29.9466 68.6953 24.9336C68.6953 19.9206 69.6888 16.0104 71.6758 13.2031C73.681 10.3776 76.3971 8.96484 79.8242 8.96484C83.2513 8.96484 85.9219 10.1771 87.8359 12.6016C89.75 15.0078 90.707 18.3893 90.707 22.7461V26.6289H76.0781C76.1328 29.3086 76.6797 31.3229 77.7188 32.6719C78.7578 34.0026 80.2253 34.668 82.1211 34.668C84.4727 34.668 86.8971 33.9297 89.3945 32.4531V38.4414C87.0612 39.8451 84.263 40.5469 81 40.5469ZM83.5703 21.3516C83.5339 19.1458 83.1966 17.4688 82.5586 16.3203C81.9206 15.1536 81.0547 14.5703 79.9609 14.5703C78.8672 14.5703 77.9922 15.1445 77.3359 16.293C76.6797 17.4232 76.2969 19.1094 76.1875 21.3516H83.5703ZM103.641 9.53906H109.164V15.3086H103.641V31.332C103.641 33.3737 104.461 34.3945 106.102 34.3945C107.159 34.3945 108.262 34.1393 109.41 33.6289V39.3164C108.225 40.1367 106.448 40.5469 104.078 40.5469C98.8828 40.5469 96.2852 37.3932 96.2852 31.0859V15.3086H93.332V12.0547L97.1328 9.42969L98.9922 2.97656H103.641V9.53906ZM138.695 0.0234375V25.8906C138.695 30.6484 137.62 34.2852 135.469 36.8008C133.318 39.2982 130.228 40.5469 126.199 40.5469C122.171 40.5469 119.117 39.2982 117.039 36.8008C114.979 34.3034 113.949 30.6302 113.949 25.7812V0.0234375H121.332V26.3281C121.332 31.4141 123.018 33.957 126.391 33.957C127.958 33.957 129.171 33.3099 130.027 32.0156C130.884 30.7214 131.312 28.8802 131.312 26.4922V0.0234375H138.695ZM152.395 13.5039C153.889 10.4779 156.059 8.96484 158.902 8.96484C161.746 8.96484 163.943 10.3411 165.492 13.0938C167.06 15.8464 167.844 19.7018 167.844 24.6602C167.844 29.6185 167.033 33.5104 165.41 36.3359C163.806 39.1432 161.591 40.5469 158.766 40.5469C157.417 40.5469 156.241 40.2461 155.238 39.6445C154.236 39.0247 153.306 37.9857 152.449 36.5273H152.066C152.358 38.9336 152.504 40.4284 152.504 41.0117V53.4531H145.176V9.53906H150.809L152.066 13.5039H152.395ZM152.449 24.6602C152.449 28.0326 152.768 30.4844 153.406 32.0156C154.062 33.5286 155.12 34.2852 156.578 34.2852C159.13 34.2852 160.406 31.0951 160.406 24.7148C160.406 18.3346 159.112 15.1445 156.523 15.1445C155.102 15.1445 154.072 15.8099 153.434 17.1406C152.814 18.4531 152.486 20.6406 152.449 23.7031V24.6602ZM171.535 32.4531C172.574 33.1458 173.741 33.7201 175.035 34.1758C176.348 34.6315 177.542 34.8594 178.617 34.8594C179.711 34.8594 180.559 34.5859 181.16 34.0391C181.762 33.4922 182.062 32.7539 182.062 31.8242C182.062 30.8763 181.743 30.056 181.105 29.3633C180.467 28.6706 179.337 27.832 177.715 26.8477C175.527 25.5352 173.951 24.1406 172.984 22.6641C172.018 21.1693 171.535 19.4102 171.535 17.3867C171.535 14.7799 172.419 12.7292 174.188 11.2344C175.974 9.72135 178.316 8.96484 181.215 8.96484C184.113 8.96484 186.757 9.67578 189.145 11.0977L186.766 16.3203C184.833 15.263 183.12 14.7344 181.625 14.7344C180.732 14.7344 180.039 14.9714 179.547 15.4453C179.073 15.9193 178.836 16.5573 178.836 17.3594C178.836 18.1432 179.109 18.8451 179.656 19.4648C180.221 20.0664 181.379 20.9049 183.129 21.9805C184.879 23.0378 186.137 23.9674 186.902 24.7695C188.507 26.4466 189.309 28.5521 189.309 31.0859C189.309 34.0938 188.424 36.4271 186.656 38.0859C184.906 39.7266 182.445 40.5469 179.273 40.5469C176.102 40.5469 173.522 39.9544 171.535 38.7695V32.4531Z" fill="#E9E9E9"/>
</svg>
